<svg version="1.1" id="Layer_1" xmlns="http://www.w3.org/2000/svg" xmlns:xlink="http://www.w3.org/1999/xlink" x="0px" y="0px" viewBox="0 0 500 500" style="width: 151px;" xml:space="preserve" data-imageid="receptionist-1-15" imageName="Receptionist 1" class="illustrations_image">
<style type="text/css">
	.st0_receptionist-1-15{fill:#FFFFFF;}
	.st1_receptionist-1-15{fill:#D1D3D4;}
	.st2_receptionist-1-15{fill:#231F20;}
	.st3_receptionist-1-15{fill:#68E1FD;}
</style>
<g id="Chair_receptionist-1-15">
	<path class="st0_receptionist-1-15" d="M153.4,349.1c0,0-32.3-112.4-17.6-136.2s111.1-10.3,127.4-1.7s28.3,138,28.3,138L153.4,349.1z"/>
	<path class="st1_receptionist-1-15" d="M291.5,349.8H153.4c-0.3,0-0.6-0.2-0.7-0.5c-1.3-4.6-32.2-113-17.5-136.8c15.4-24.8,112.5-10.3,128.3-2&#10;&#9;&#9;c16.5,8.7,28.2,133.2,28.6,138.5C292.3,349.4,292,349.7,291.5,349.8C291.6,349.8,291.6,349.8,291.5,349.8L291.5,349.8z&#10;&#9;&#9; M153.9,348.4h136.8c-1-10.7-12.6-128.7-27.8-136.6c-16.7-8.8-112.2-21.6-126.5,1.5C122.5,235.7,151.6,340.1,153.9,348.4&#10;&#9;&#9;L153.9,348.4z"/>
</g>
<g id="Character_receptionist-1-15">
	<path class="st0_receptionist-1-15" d="M408.6,318.2c-0.9-3.8-15.9-8-18.8-9.6s-23.1,0-23.1,0s-61.8-11.6-65-15.4s-18-71.8-18-71.8&#10;&#9;&#9;c-12.4-5.6-22.5,20-18.6,35c3.9,15,3,54.1,18.6,59s79.3,12.2,79.3,12.2s16.4-1.6,20.9-1.6s16.4-0.7,20.4,1.6&#10;&#9;&#9;S409.6,321.9,408.6,318.2z"/>
	<path class="st2_receptionist-1-15" d="M405.5,328.7c-0.6,0-1.2-0.2-1.7-0.5c-3.2-1.9-12-1.7-17.3-1.6c-1,0-2,0-2.7,0c-4.4,0-20.6,1.6-20.8,1.6h-0.1&#10;&#9;&#9;c-0.6-0.1-63.9-7.3-79.4-12.2c-11.8-3.7-14.4-25.5-16.5-43c-0.8-6.4-1.5-12.4-2.5-16.5c-2.9-11,1.5-27.5,9.1-34&#10;&#9;&#9;c3.3-2.8,6.9-3.4,10.4-1.8c0.2,0.1,0.4,0.3,0.4,0.5c6,27.3,15.7,68.9,17.9,71.5s39.7,10.5,64.5,15.1c2.5-0.2,20.5-1.6,23.4,0.1&#10;&#9;&#9;c1.6,0.7,3.2,1.4,4.8,1.9c7.4,2.8,13.7,5.3,14.4,8.1l0,0c0.7,2.9,0.2,8.3-2.1,10.1C406.7,328.5,406.1,328.7,405.5,328.7z&#10;&#9;&#9; M391.3,325.1c5.1,0,10.6,0.3,13.3,1.8c0.5,0.4,1.3,0.4,1.8,0c1.6-1.2,2.3-5.9,1.6-8.6l0,0c-0.6-2.3-8.7-5.3-13.5-7.1&#10;&#9;&#9;c-1.7-0.6-3.4-1.2-5-2c-2-1.1-14.7-0.6-22.7,0.1h-0.2c-6.4-1.2-62.2-11.8-65.4-15.6s-16.3-63.3-18.1-71.8c-2.9-1.2-5.8-0.6-8.6,1.8&#10;&#9;&#9;c-7.1,6-11.5,22.1-8.7,32.5c1.1,4.1,1.8,10.2,2.6,16.6c2.1,17.1,4.6,38.4,15.5,41.9c15.2,4.8,76.6,11.9,79.1,12.1&#10;&#9;&#9;c1.4-0.1,16.5-1.6,20.9-1.6c0.7,0,1.6,0,2.6,0C387.9,325.1,389.6,325.1,391.3,325.1z"/>
	<path class="st0_receptionist-1-15" d="M245.1,105.5c0,0,17.6,0.6,22.8,9.1s4.5,21.1,11.1,29.2c6.2,7.7,5.5,19.5,2.3,28.5&#10;&#9;&#9;c-2.6,7.4-9.1,13.9-16.9,14.1c4.9,5.6,3.6,14.7-1,20.6s-11.6,9.2-18.5,12c-13.4,5.4-28,9.4-42.1,6.6s-27.4-14.3-28.1-28.7&#10;&#9;&#9;c-0.3-6.8,3.4-14.7,10.1-15.4c-9.4-10.4-8.6-26.4,1.8-35.8c3.3-3,7.4-5.1,11.8-6C193.3,112.6,223,99.4,245.1,105.5z"/>
	<path class="st2_receptionist-1-15" d="M212.3,227.4c-3.2,0-6.5-0.3-9.6-0.9c-13.3-2.6-27.9-13.8-28.7-29.3c-0.3-6.7,3.2-14.4,9.5-16&#10;&#9;&#9;c-9.2-11.1-7.6-27.5,3.5-36.6c3.1-2.6,6.7-4.4,10.6-5.3c-2.2-12.9,3.4-21.2,8.6-25.9c9.5-8.8,25.6-12.3,39.1-8.6&#10;&#9;&#9;c1.5,0.1,18.1,1,23.2,9.5c2.4,3.9,3.5,8.7,4.7,13.3c1.4,5.6,2.8,11.4,6.4,15.8c6.5,8.1,5.5,20.4,2.4,29.2&#10;&#9;&#9;c-2.3,6.5-8.3,13.6-16.2,14.5c4.3,6.2,2.4,15-1.8,20.4c-4.6,6-11.8,9.4-18.8,12.2C236.6,223.2,224.7,227.4,212.3,227.4z M234,104.7&#10;&#9;&#9;c-10.1,0-20.2,3.5-27,9.7c-5,4.6-10.4,12.7-8,25.3c0.1,0.4-0.2,0.7-0.6,0.8c-13.3,2.8-21.8,15.9-19,29.2c0.9,4.3,2.9,8.2,5.9,11.5&#10;&#9;&#9;c0.3,0.3,0.2,0.7-0.1,1c-0.1,0.1-0.2,0.2-0.4,0.2c-6.3,0.7-9.9,8.2-9.5,14.7c0.7,14.8,14.7,25.4,27.6,28c15.2,3,31.1-2.3,41.7-6.6&#10;&#9;&#9;c6.8-2.8,13.7-6.1,18.2-11.8c4.1-5.3,5.9-14,1-19.7c-0.2-0.2-0.2-0.5-0.1-0.7c0.1-0.2,0.4-0.4,0.6-0.4c7.9-0.2,14-7.2,16.3-13.6&#10;&#9;&#9;c3-8.5,4-20.2-2.2-27.8c-3.8-4.6-5.2-10.6-6.6-16.4c-1.2-4.7-2.3-9.2-4.5-13c-4.9-8.1-22-8.8-22.2-8.8c-0.1,0-0.1,0-0.2,0&#10;&#9;&#9;C241.3,105.2,237.7,104.7,234,104.7z"/>
	<path class="st3_receptionist-1-15 targetColor" d="M165.3,217.7c-7.9,28.7,3.7,68.6,3.7,68.6l96-3.8c0,0,15.9-28.1,20.1-45.9c5.9-24.7-18.2-33.8-25.8-40.3&#10;&#9;&#9;C253.1,191,173.2,189,165.3,217.7z" style="fill: rgb(8, 8, 128);"/>
	<path class="st3_receptionist-1-15 targetColor" d="M282.6,202.9l19.8,48.7l-36.4,9c0,0-26.9-53.2-22.3-67.3C262.7,190.5,275.3,193.7,282.6,202.9z" style="fill: rgb(8, 8, 128);"/>
	<path class="st2_receptionist-1-15" d="M193.9,198.6c0,0,15.4,45.1,14,59.1s-41.3,20.9-41.3,20.9s14.6,34.9,15,48.5s-1.1,32.2-1.1,32.2l100-18.1&#10;&#9;&#9;c0,0-5.8-41.1-4.4-53s11.9-25.4,8.9-45.2c-1.1-6.9-12.6-14.5-17.1-25.2s-7-27.2-7-27.2h-8.4c0,0,6.3,29.1,7,40.3&#10;&#9;&#9;s-14.4,32.5-14.4,32.5s-23.8-14.5-30.4-23s-12.9-44.7-12.9-44.7L193.9,198.6z"/>
	<path class="st2_receptionist-1-15" d="M180.5,360c-0.2,0-0.3-0.1-0.5-0.2c-0.2-0.1-0.2-0.4-0.2-0.6c0-0.2,1.6-18.7,1.1-32.1s-14.8-47.9-15-48.2&#10;&#9;&#9;c-0.1-0.2-0.1-0.4,0-0.6c0.1-0.2,0.3-0.3,0.5-0.4c0.4-0.1,39.4-6.9,40.7-20.2c1.4-13.7-13.8-58.4-13.9-58.8&#10;&#9;&#9;c-0.1-0.4,0.1-0.7,0.4-0.9l7.9-2.9c0.4-0.1,0.8,0.1,0.9,0.4c0,0,0,0.1,0,0.1c0.1,0.4,6.4,36.2,12.8,44.4c5.9,7.5,26,20.2,29.6,22.4&#10;&#9;&#9;c2.3-3.4,14.5-21.7,13.9-31.6c-0.7-11.1-7-39.9-7-40.2c0-0.2,0-0.4,0.1-0.6c0.1-0.2,0.3-0.3,0.6-0.3h8.4c0.3,0,0.6,0.3,0.7,0.6&#10;&#9;&#9;c0,0.2,2.6,16.6,7,27.1c2.2,5.2,6.1,9.7,9.6,13.7c3.7,4.2,6.9,7.9,7.5,11.6c2,13.1-1.8,23.4-5.1,32.5c-1.7,4.6-3.3,9-3.8,13&#10;&#9;&#9;c-1.4,11.6,4.3,52.4,4.4,52.8c0,0.4-0.2,0.7-0.6,0.8l-100,18.1H180.5z M167.6,279.1c2.2,5.4,14.3,35.4,14.8,47.9&#10;&#9;&#9;c0.4,11.8-0.8,27.5-1.1,31.4l98.4-17.9c-0.8-5.5-5.6-41.4-4.3-52.5c0.5-4.2,2.1-8.6,3.8-13.3c3.3-8.9,7-19,5-31.8&#10;&#9;&#9;c-0.5-3.3-3.6-6.8-7.2-10.9s-7.6-8.7-9.9-14.1c-4-9.5-6.5-23.8-7-26.8h-7c1,4.9,6.2,29.5,6.9,39.6c0.7,11.4-13.9,32.1-14.5,33&#10;&#9;&#9;c-0.2,0.3-0.6,0.4-0.9,0.2c-1-0.6-24-14.7-30.6-23.1c-6.1-7.9-11.9-38.6-12.9-44.2l-6.4,2.4c1.9,5.8,15.1,45.5,13.8,58.8&#10;&#9;&#9;S173.6,278,167.6,279.1z"/>
	<path class="st0_receptionist-1-15" d="M248.3,184.8l3.2,24.3c0,0-4,10-20.3,8.4c-10.1-1-17.4-15.4-17.4-15.4c-2.6-5.1-2.3-31.7-2.3-31.7&#10;&#9;&#9;s7-2.7,10.8-14.7c3-9.4,0.9-22.4,0.9-22.4s11.4,1.3,20-2.6s14.5-12.7,14.5-12.9c0,0,9.9,41.5,6.9,54.7&#10;&#9;&#9;C261.7,184.7,248.3,184.8,248.3,184.8z"/>
	<path class="st2_receptionist-1-15" d="M234.7,218.4c-1.1,0-2.3-0.1-3.6-0.2c-10-1-17.2-14.3-17.9-15.8l0,0c-2.6-5.2-2.4-30.9-2.4-32&#10;&#9;&#9;c0-0.3,0.2-0.5,0.4-0.6c0.1,0,6.8-2.7,10.4-14.3c2.9-9.1,0.8-22,0.8-22.1c0-0.2,0-0.4,0.2-0.6c0.2-0.2,0.4-0.2,0.6-0.2&#10;&#9;&#9;c0.1,0,11.3,1.2,19.6-2.5c8-3.5,13.6-11.5,14.1-12.5c0.1-0.4,0.5-0.6,0.9-0.5c0.2,0.1,0.4,0.3,0.5,0.5c0.1,0.4,10,41.6,6.9,55&#10;&#9;&#9;c-2.5,10.8-13.1,12.5-16.1,12.8l3.1,23.6c0,0.1,0,0.2,0,0.4C252,209.8,248.4,218.4,234.7,218.4z M212.2,170.9&#10;&#9;&#9;c0,3.5-0.1,26.3,2.2,30.9c0.1,0.1,7.2,14.1,16.8,15.1c14.6,1.5,19-6.6,19.6-7.8l-3.2-24.1c0-0.2,0-0.4,0.2-0.6&#10;&#9;&#9;c0.1-0.2,0.3-0.2,0.5-0.2c0.5,0,12.8-0.3,15.5-11.8c2.6-11.3-4.7-45-6.5-52.7c-2.1,3.1-7.4,8.9-13.9,11.8&#10;&#9;&#9;c-7.4,3.3-16.6,2.9-19.4,2.7c0.4,3.1,1.6,13.8-1,21.9C219.6,166.6,213.9,170.1,212.2,170.9z"/>
	<path class="st2_receptionist-1-15" d="M250,197.6c-5.6,0.7-11.3-1.5-15-5.8c-6.5-7.3-5.1-8.6-5.1-8.6c5.9,1.9,12.2,2.4,18.4,1.6L250,197.6z"/>
	<path class="st2_receptionist-1-15" d="M248,198.4c-5.2,0-10.1-2.2-13.5-6.1c-2.8-3.1-4.5-5.5-5.1-7.3c-0.6-1.5-0.1-2.1,0.1-2.3&#10;&#9;&#9;c0.2-0.2,0.5-0.2,0.7-0.1c5.8,1.8,12,2.3,18,1.5c0.4,0,0.7,0.2,0.8,0.6l1.7,12.8c0.1,0.4-0.2,0.7-0.6,0.8&#10;&#9;&#9;C249.4,198.4,248.7,198.4,248,198.4z M230.6,184.2c0.2,0.9,1.2,2.9,5,7.2c3.4,3.9,8.4,5.9,13.6,5.6l-1.5-11.4&#10;&#9;&#9;C242,186.3,236.1,185.8,230.6,184.2L230.6,184.2z"/>
	<path class="st0_receptionist-1-15" d="M242.9,146.2c0,0,7.9,12.8,5.8,14.9s-7.6,0.4-7.6,0.4"/>
	<path class="st2_receptionist-1-15" d="M245.2,162.9c-1.5,0-2.9-0.2-4.3-0.7c-0.4-0.1-0.6-0.5-0.5-0.9c0.1-0.4,0.5-0.6,0.9-0.5&#10;&#9;&#9;c1.4,0.4,5.4,1.2,6.9-0.3c1-1-2.2-8.1-5.9-14c-0.2-0.3-0.1-0.8,0.2-1c0,0,0,0,0,0c0.3-0.2,0.7-0.1,1,0.2c0,0,0,0,0,0.1&#10;&#9;&#9;c1.9,3.1,8,13.4,5.7,15.8C248.1,162.6,246.7,163,245.2,162.9z"/>
	<path class="st2_receptionist-1-15" d="M245,176.6c-8,0-11.2-9.8-11.4-10.2c0-0.1,0-0.1,0-0.2c0-0.2,0-0.4,0.2-0.5c0.3-0.3,0.4-0.4,19.2-0.4&#10;&#9;&#9;c0.4,0,0.7,0.3,0.7,0.7c0,0.2,0.1,5.2-2.9,8.3C249.3,175.9,247.2,176.7,245,176.6L245,176.6z M235.3,166.9c0.9,2.3,4,8.4,9.7,8.4&#10;&#9;&#9;l0,0c1.8,0.1,3.5-0.6,4.8-1.9c2-2,2.4-5.2,2.5-6.6C246.3,166.8,238,166.8,235.3,166.9L235.3,166.9z"/>
	<path class="st0_receptionist-1-15" d="M229.8,144.1c0,0,1.5-4.2,6.7-2.5"/>
	<path class="st2_receptionist-1-15" d="M229.8,144.8c-0.1,0-0.2,0-0.2,0c-0.4-0.1-0.5-0.5-0.4-0.9c0-0.1,1.8-4.8,7.6-2.9c0.4,0.1,0.6,0.5,0.4,0.9&#10;&#9;&#9;c-0.1,0.4-0.5,0.6-0.9,0.4c0,0,0,0,0,0c-4.4-1.4-5.7,1.7-5.8,2.1C230.4,144.6,230.1,144.8,229.8,144.8z"/>
	<path class="st0_receptionist-1-15" d="M248.8,141.8c0,0,2.4-3.8,7.1-0.9"/>
	<path class="st2_receptionist-1-15" d="M248.8,142.5c-0.1,0-0.3,0-0.4-0.1c-0.3-0.2-0.4-0.6-0.2-1c0,0,0,0,0,0c0,0,2.9-4.3,8-1.1&#10;&#9;&#9;c0.3,0.2,0.5,0.6,0.3,0.9c-0.2,0.3-0.6,0.5-0.9,0.3c0,0-0.1,0-0.1-0.1c-3.9-2.4-5.9,0.3-6.1,0.6C249.2,142.4,249,142.5,248.8,142.5&#10;&#9;&#9;z"/>
	<path class="st0_receptionist-1-15" d="M223.8,155.9c-0.5-4.5-4-8.3-8.2-9.9c-2.9-1.2-6.2-1.3-9.3-0.3c-3,1.1-5.4,3.5-6.2,6.6&#10;&#9;&#9;c-0.8,3.1,0.2,6.4,1.8,9.1c3.7,6.2,10.2,10.2,17.4,10.6"/>
	<path class="st2_receptionist-1-15" d="M219.2,172.7L219.2,172.7c-7.4-0.4-14.2-4.5-18-10.9c-1.9-3.3-2.6-6.7-1.9-9.6c0.9-3.3,3.4-6,6.6-7.1&#10;&#9;&#9;c3.2-1.1,6.7-1,9.8,0.3c4.7,1.9,8.1,6,8.7,10.5c0,0.4-0.2,0.7-0.6,0.8c-0.4,0-0.7-0.2-0.8-0.6c0,0,0,0,0,0c-0.5-4-3.5-7.7-7.8-9.4&#10;&#9;&#9;c-2.8-1.2-5.9-1.3-8.8-0.3c-2.8,1-5,3.3-5.8,6.1c-0.6,2.5,0,5.6,1.7,8.6c3.6,6,9.9,9.8,16.8,10.2c0.4,0,0.7,0.3,0.7,0.7&#10;&#9;&#9;C219.9,172.3,219.6,172.6,219.2,172.7L219.2,172.7z"/>
	<path class="st2_receptionist-1-15" d="M239.4,213.2c0,0-12.4,3.7-22.2,2.1s-14.7-24.8-17.4-38s-2.5-24.8,1.9-29.4s14.7-5.5,14.7-5.5l2.4,21.5&#10;&#9;&#9;c0,0-10.4,2.4-9.9,8.4s1.4,19.9,6.1,24.8s7.9-1.1,12.1,0S239.6,210.8,239.4,213.2z"/>
	<path class="st2_receptionist-1-15" d="M222.4,216.5c-1.8,0-3.6-0.1-5.3-0.4c-10.3-1.6-15.1-24.8-18-38.6c-3-14.3-2.2-25.5,2-30&#10;&#9;&#9;c4.4-4.8,14.7-5.7,15.1-5.7c0.4,0,0.7,0.2,0.7,0.6c0,0,0,0,0,0l2.4,21.6c0,0.4-0.2,0.7-0.5,0.8c-0.1,0-9.8,2.3-9.3,7.7l0.1,1.7&#10;&#9;&#9;c0.6,6.4,1.6,18.4,5.7,22.7c2.4,2.6,4.3,1.8,6.6,0.8c1.6-0.7,3.3-1.5,5.2-0.9c4.6,1.2,13.2,14,12.9,16.8c0,0.3-0.2,0.5-0.5,0.6&#10;&#9;&#9;C234,215.5,228.2,216.4,222.4,216.5z M215.7,143.3c-2.3,0.3-10.1,1.5-13.6,5.2c-3.9,4.2-4.6,14.9-1.7,28.8&#10;&#9;&#9;c2.6,12.6,7.5,36,16.8,37.5c8.4,1.3,18.9-1.3,21.3-2c-0.6-2.9-7.9-13.8-11.8-14.8c-1.5-0.4-2.9,0.2-4.3,0.9&#10;&#9;&#9;c-2.4,1.1-5.1,2.2-8.2-1.1c-4.4-4.7-5.5-16.9-6.1-23.6l-0.1-1.6c-0.5-5.8,7.5-8.4,9.8-9L215.7,143.3z M239.4,213.3L239.4,213.3z"/>
	<path class="st0_receptionist-1-15" d="M199.3,321.8c-20-3.5-34.8-49.4-32.4-59.4s13.9-13.8,26.7-13.9c6.2,12.1,6.2,11.7,6.2,13.2&#10;&#9;&#9;c0,0,3.7-18.9,8.7-47.9c0,0-8.6-15.3-10-19.4s-2.8-23.8,0.1-24.4s3.4,2.1,4.6,8.1s2,11.6,2,11.6s0.5-9.8,1.7-13.7&#10;&#9;&#9;c1.3-4.4,4.9-6.5,5.5-2.8s-2.3,10.8-1.4,18.2c0,0,2.1-13.3,5.2-12.5s-1.5,11.6-1.2,18c0,0,2.2-9.6,5.4-9.3s-1.4,8.2-0.8,12.5&#10;&#9;&#9;s9.8,11.7,10.3,15.1S219.3,325.3,199.3,321.8z"/>
	<path class="st2_receptionist-1-15" d="M200.3,322.6c-0.4,0-0.7,0-1.1-0.1c-6.2-1.1-12.3-6.1-18.1-14.8c-10.4-15.6-16.4-38.7-14.9-45.4&#10;&#9;&#9;c2.1-9.1,12.1-14.4,27.4-14.4l0,0c0.3,0,0.5,0.1,0.6,0.4c1.3,2.6,2.4,4.6,3.2,6.2c1.1,2.1,1.8,3.4,2.2,4.3&#10;&#9;&#9;c1.2-6.3,4.3-22.7,8.1-44.9c-1.1-2-8.6-15.4-10-19.2c-1.2-3.5-2.7-20.5-0.6-24.3c0.2-0.5,0.6-0.9,1.2-1c0.8-0.2,1.7-0.1,2.4,0.4&#10;&#9;&#9;c1.6,1.1,2.1,3.8,3,8.3c0.4,2,0.7,4,1,5.7c0.2-2.7,0.6-5.3,1.3-7.9c0.9-3.1,3-5.3,4.8-5.2c0.6,0,1.7,0.4,2.1,2.5&#10;&#9;&#9;c0.1,2.2-0.1,4.5-0.6,6.6c-0.3,1.6-0.6,3.2-0.8,4.9c0.8-2.6,1.8-5.2,3.1-6.1c0.5-0.3,1-0.4,1.6-0.3c2.5,0.7,1.6,4.7,0.6,9.7&#10;&#9;&#9;c-0.2,0.9-0.4,1.8-0.6,2.6c1-2.1,2.4-3.9,4.1-3.8c0.5,0,1.1,0.3,1.4,0.8c0.8,1.2,0.2,3.4-0.5,6.1c-0.6,2.2-1.3,4.6-1,6.3&#10;&#9;&#9;c0.3,2.1,3.1,5.3,5.5,8.1s4.5,5.2,4.8,7c0.6,3.5-8.4,88.6-24.5,104.5C204.6,321.5,202.5,322.5,200.3,322.6z M199.4,321.1&#10;&#9;&#9;c1.9,0.3,3.7-0.4,5.5-2.3c15.7-15.5,24.7-99.9,24.1-103.3c-0.2-1.4-2.4-3.9-4.5-6.3c-2.7-3.1-5.5-6.3-5.8-8.8&#10;&#9;&#9;c-0.3-2,0.4-4.6,1.1-6.9c0.5-1.9,1.2-4.3,0.7-4.9c0,0-0.1-0.1-0.4-0.1c-1.8-0.2-3.8,5.1-4.7,8.8c-0.1,0.4-0.5,0.6-0.8,0.5&#10;&#9;&#9;c-0.3-0.1-0.5-0.3-0.5-0.6c0.1-3.1,0.5-6.2,1.3-9.3c0.7-3.4,1.6-7.7,0.4-8c-0.2,0-0.3,0-0.4,0.1c-1.7,1.1-3.3,7.8-3.9,11.8&#10;&#9;&#9;c0,0.4-0.4,0.6-0.7,0.6c-0.3,0-0.6-0.3-0.7-0.6c-0.3-4,0-8.1,0.8-12c0.5-2,0.7-4.1,0.6-6.2c-0.1-0.4-0.2-1.3-0.8-1.3&#10;&#9;&#9;c-0.9,0-2.5,1.5-3.3,4.2c-1.2,3.8-1.6,13.5-1.7,13.6c0,0.4-0.3,0.6-0.7,0.7c-0.4,0-0.7-0.2-0.7-0.6c0-0.1-0.8-5.6-1.9-11.6&#10;&#9;&#9;c-0.7-3.9-1.3-6.7-2.4-7.4c-0.4-0.3-0.9-0.3-1.4-0.2c-1.5,0.6-1.6,17.9,0.4,23.4c1.4,3.9,9.9,19.1,10,19.2c0.1,0.1,0.1,0.3,0.1,0.5&#10;&#9;&#9;c-5,28.7-8.7,47.8-8.7,48c-0.1,0.4-0.5,0.6-0.8,0.5c-0.3-0.1-0.5-0.3-0.5-0.7c0-1,0-1-2.9-6.6l-3-5.8c-7.1,0.1-22.9,1.6-25.6,13.3&#10;&#9;&#9;c-1.5,6.5,4.5,29,14.7,44.3c5.5,8.3,11.4,13.2,17.2,14.2L199.4,321.1z"/>
	<path class="st2_receptionist-1-15" d="M193.6,249.3c-0.3,0-0.6-0.2-0.7-0.5l-9.1-34.8c-0.1-0.4,0.1-0.8,0.5-0.9c0.4-0.1,0.7,0.1,0.9,0.5l9.1,34.8&#10;&#9;&#9;c0.1,0.4-0.1,0.7-0.5,0.8c0,0,0,0,0,0C193.7,249.3,193.7,249.3,193.6,249.3z"/>
	<polygon class="st0_receptionist-1-15" points="257.4,265 277.7,260.7 277.7,267.6 257.4,271.9 &#9;"/>
</g>
<g id="Desk_receptionist-1-15">
	<path class="st0_receptionist-1-15" d="M42.9,334.3h409.3c2.9,0,5.3,2.4,5.3,5.3v15c0,2.9-2.4,5.3-5.3,5.3H42.9c-2.9,0-5.3-2.4-5.3-5.3v-15&#10;&#9;&#9;C37.6,336.7,40,334.3,42.9,334.3z"/>
	<path class="st2_receptionist-1-15" d="M450.1,360.6H45c-4.5,0-8.1-3.7-8.2-8.1v-10.7c0-4.5,3.7-8.1,8.2-8.1h405c4.5,0,8.1,3.7,8.1,8.1v10.7&#10;&#9;&#9;C458.1,356.9,454.5,360.6,450.1,360.6z M45,335c-3.7,0-6.8,3-6.8,6.8l0,0v10.7c0,3.7,3,6.7,6.8,6.7h405c3.7,0,6.7-3,6.8-6.8v-10.7&#10;&#9;&#9;c0-3.7-3-6.7-6.8-6.8L45,335z"/>
	<rect x="44.7" y="359.9" class="st0_receptionist-1-15" width="402.4" height="36"/>
	<path class="st2_receptionist-1-15" d="M447.1,396.6H44.7c-0.4,0-0.7-0.3-0.7-0.7l0,0v-36c0-0.4,0.3-0.7,0.7-0.7c0,0,0,0,0,0h402.4&#10;&#9;&#9;c0.4,0,0.7,0.3,0.7,0.7v0V396C447.8,396.4,447.4,396.7,447.1,396.6z M45.4,395.2h401v-34.6h-401V395.2z"/>
	<path class="st0_receptionist-1-15" d="M40.5,334.3h119.2c1.6,0,2.9,1.3,2.9,2.9V357c0,1.6-1.3,2.9-2.9,2.9H40.5c-1.6,0-2.9-1.3-2.9-2.9v-19.8&#10;&#9;&#9;C37.6,335.6,38.9,334.3,40.5,334.3z"/>
	<path class="st2_receptionist-1-15" d="M158.5,360.6H41.7c-2.6,0-4.8-2.1-4.8-4.8v-17.5c0-2.6,2.1-4.8,4.8-4.8h116.9c2.6,0,4.8,2.1,4.8,4.8v17.5&#10;&#9;&#9;C163.3,358.5,161.2,360.6,158.5,360.6z M41.7,335c-1.9,0-3.4,1.5-3.4,3.4v17.5c0,1.9,1.5,3.4,3.4,3.4h116.9c1.9,0,3.4-1.5,3.4-3.4&#10;&#9;&#9;v-17.5c0-1.9-1.5-3.4-3.4-3.4L41.7,335z"/>
	<rect x="40.7" y="359.9" class="st0_receptionist-1-15" width="118.8" height="36"/>
	<path class="st2_receptionist-1-15" d="M159.5,396.6H40.7c-0.4,0-0.7-0.3-0.7-0.7l0,0v-36c0-0.4,0.3-0.7,0.7-0.7c0,0,0,0,0,0h118.8&#10;&#9;&#9;c0.4,0,0.7,0.3,0.7,0.7l0,0V396C160.2,396.4,159.9,396.7,159.5,396.6z M41.4,395.2h117.4v-34.6H41.4L41.4,395.2z"/>
</g>
<g id="Laptop_receptionist-1-15">
	<polygon class="st0_receptionist-1-15" points="437.8,328.4 314.6,328.4 339.2,250.2 462.4,250.2 &#9;"/>
	<path class="st2_receptionist-1-15" d="M437.8,329.1H314.6c-0.2,0-0.4-0.1-0.6-0.3c-0.1-0.2-0.2-0.4-0.1-0.6l24.6-78.2c0.1-0.3,0.4-0.5,0.7-0.5h123.2&#10;&#9;&#9;c0.2,0,0.4,0.1,0.6,0.3c0.1,0.2,0.2,0.4,0.1,0.6l-24.6,78.2C438.4,328.9,438.1,329.1,437.8,329.1z M315.6,327.7h121.8l24.1-76.8&#10;&#9;&#9;H339.7L315.6,327.7z"/>
	<rect x="265.1" y="328.4" class="st0_receptionist-1-15" width="172.9" height="5.9"/>
	<path class="st2_receptionist-1-15" d="M438,335H265.1c-0.4,0-0.7-0.3-0.7-0.7v0v-5.9c0-0.4,0.3-0.7,0.7-0.7H438c0.4,0,0.7,0.3,0.7,0.7v0v5.9&#10;&#9;&#9;C438.7,334.7,438.4,335,438,335L438,335z M265.8,333.6h171.5v-4.5H265.8L265.8,333.6z"/>
	<path class="st2_receptionist-1-15" d="M314.6,335c-0.4,0-0.7-0.3-0.7-0.7v0v-5.9c0-0.4,0.3-0.7,0.7-0.7c0.4,0,0.7,0.3,0.7,0.7v5.9&#10;&#9;&#9;C315.3,334.7,315,335,314.6,335z"/>
	<ellipse transform="matrix(0.9946 -0.1042 0.1042 0.9946 -28.1927 42.2151)" class="st1_receptionist-1-15" cx="390" cy="291" rx="12.5" ry="6.9"/>
</g>
<g id="Calendar_receptionist-1-15">
	<rect x="54.8" y="146.1" class="st0_receptionist-1-15" width="61.1" height="59.7"/>
	<path class="st1_receptionist-1-15" d="M115.9,206.5H54.8c-0.4,0-0.7-0.3-0.7-0.7v-59.7c0-0.4,0.3-0.7,0.7-0.7h61.1c0.4,0,0.7,0.3,0.7,0.7v59.7&#10;&#9;&#9;C116.6,206.2,116.3,206.5,115.9,206.5z M55.5,205.1h59.7v-58.3H55.5L55.5,205.1z"/>
	<rect x="54.8" y="146.1" class="st0_receptionist-1-15" width="61.1" height="13.4"/>
	<path class="st1_receptionist-1-15" d="M115.9,160.1H54.8c-0.4,0-0.7-0.3-0.7-0.7v-13.4c0-0.4,0.3-0.7,0.7-0.7h61.1c0.4,0,0.7,0.3,0.7,0.7v13.4&#10;&#9;&#9;C116.6,159.8,116.3,160.1,115.9,160.1z M55.5,158.7h59.7v-12H55.5L55.5,158.7z"/>
	<ellipse class="st1_receptionist-1-15" cx="85.3" cy="153.4" rx="2.7" ry="2.4"/>
</g>
<g id="Telephone_receptionist-1-15">
	<path class="st1_receptionist-1-15" d="M126.3,326c-1.9,0-3.9-0.2-5.7-0.7c-0.4-0.1-0.6-0.5-0.5-0.9c0.1-0.4,0.5-0.6,0.9-0.5l0,0&#10;&#9;&#9;c6.4,1.6,13.2,0.3,18.5-3.6c0.9-0.6,1.6-1.4,2.3-2.2c-0.6,0-1.3-0.1-1.9-0.3c-1.1-0.4-2-1.3-2.4-2.4c-0.4-0.8-0.4-1.7,0-2.5&#10;&#9;&#9;c0.6-1.2,1.9-1.8,3.1-1.5c1.7,0.2,3.1,1.6,3.5,3.3c0.1,0.6,0.1,1.2-0.1,1.7l0.8-0.2c2.8-0.7,5.9-1.6,7.9-3.8&#10;&#9;&#9;c0.1-0.1,0.2-0.3,0.4-0.4c-1-0.9-1.7-2.2-1.9-3.5c-0.4-1.7,0.2-3.4,1.7-4.5c0.2-0.2,0.6-0.2,0.8,0c1.2,0.9,1.9,2.2,2,3.7&#10;&#9;&#9;c0.1,1.3-0.1,2.7-0.7,3.9c0.3,0.1,0.6,0.3,0.9,0.3c4,1,7.6-2.6,8.6-3.7c0.3-0.4,0.7-0.8,0.9-1.2c-1.1-0.6-2.2-1.4-3.1-2.3&#10;&#9;&#9;c-0.1-0.1-0.1-0.2-0.2-0.3c-0.3-1,0.4-2.1,1.4-2.4c0,0,0,0,0,0c1.4-0.5,2.9,0,3.7,1.3c0.4,1,0.4,2,0,3c5.7,2.5,12.3-0.2,14.7-5.8&#10;&#9;&#9;c0.3-0.7,0.6-1.5,0.7-2.3c-0.1-0.1-0.2-0.2-0.3-0.4c-0.6-0.9-0.9-2-0.6-3c0.2-0.8,0.7-1.5,1.4-1.9c0.2-0.1,0.4-0.1,0.6,0&#10;&#9;&#9;c0.2,0.1,0.3,0.3,0.4,0.5c0.3,1.4,0.3,2.9,0.1,4.3c0.8,0.5,1.8,0.8,2.7,0.8c3.3,0.1,6.5-1.3,8.6-3.9c1.1-1.3,2-2.9,2.4-4.6&#10;&#9;&#9;c-0.1-0.1-0.2-0.2-0.4-0.3c-0.8-0.9-1.1-2.1-0.8-3.3c0.2-0.9,0.9-1.5,1.8-1.7c0.4-0.1,0.7,0.1,0.8,0.5c0,0,0,0,0,0&#10;&#9;&#9;c0.3,1.4,0.3,2.8,0.1,4.1c1,0.3,2,0.5,3,0.4c3-0.1,7-0.8,9.4-3.6c0.8-0.9,1.2-2.1,1.4-3.2c-0.8-0.5-1.5-1.2-2-2&#10;&#9;&#9;c-0.8-1.2-1-2.6-0.6-4c0.1-0.2,0.2-0.4,0.4-0.5c0.2-0.1,0.4-0.1,0.6,0c1.5,0.8,2.6,2.3,2.9,4.1c0.1,0.5,0.2,1,0.1,1.5&#10;&#9;&#9;c0.2,0.1,0.5,0.2,0.7,0.2c2.4,0.3,4.8-0.7,6.3-2.7c0.4-0.4,0.6-0.9,0.9-1.4c-0.6,0.1-1.3,0.1-1.9,0c-0.2,0-0.4-0.1-0.5-0.3&#10;&#9;&#9;c-1.1-1.5-1.5-3.3-1.1-5.1c0.1-0.2,0.2-0.4,0.4-0.5c0.9-0.4,1.9-0.3,2.7,0.1c1,0.5,1.8,1.5,2.1,2.6c0.1,0.3,0.1,0.6,0.1,0.9&#10;&#9;&#9;c2.4-1.3,4.4-4,5.9-6.4c0.9-1.2,1.5-2.6,2-4c-1.1-0.1-2.1-0.4-3.1-1c-1.5-0.8-2.3-2.5-2-4.2c0-0.1,0.1-0.3,0.2-0.4&#10;&#9;&#9;c0.9-0.8,2.2-1,3.3-0.6c1.7,0.6,2.9,2,3.2,3.8c0,0.3,0.1,0.7,0.1,1c0.5-0.1,1-0.3,1.4-0.7c2.6-2,3.2-5.8,3.5-9.6&#10;&#9;&#9;c0.1-1.2,0.1-2.5-0.1-3.7c-0.3,0.3-0.6,0.6-1,0.9c-1,0.6-2.2,0.7-3.4,0.3c-0.8-0.3-1.5-1-1.7-1.8c-0.3-1.2,0.2-2.4,1.3-2.9&#10;&#9;&#9;c1.4-0.9,3.3-0.8,4.6,0.3l0.3,0.3c0.1-0.3,0.2-0.7,0.3-1c0.9-3.4,1.2-7,0.8-10.5v-0.1c-0.9,0.2-1.8,0.1-2.6-0.3&#10;&#9;&#9;c-1-0.4-1.5-1.4-1.5-2.4c0-0.1,0-0.2,0.1-0.2c0.3-0.6,0.9-1.1,1.5-1.2c0.9-0.2,1.8,0.1,2.4,0.6c0.4,0.4,0.7,0.8,0.9,1.3&#10;&#9;&#9;c0.8-1.3,1.1-2.8,0.8-4.3c-0.4-5.4-2.5-10.6-6-14.8c-0.2-0.3-0.2-0.7,0.1-1c0.3-0.2,0.7-0.2,1,0.1c3.6,4.4,5.8,9.9,6.2,15.6&#10;&#9;&#9;c0.2,2.8-0.3,4.8-1.7,5.9l0,0c0,0.2,0.1,0.4,0.1,0.6c0.5,3.7,0.2,7.4-0.8,11c-0.2,0.7-0.4,1.4-0.7,2.1c0.6,1.7,0.8,3.5,0.6,5.4&#10;&#9;&#9;c-0.3,4.1-1,8.2-4.1,10.6c-0.7,0.5-1.5,0.9-2.4,1c-0.5,1.7-1.3,3.3-2.3,4.8c-1.9,2.9-4.2,6-7.3,7.3c-0.3,1-0.8,1.9-1.5,2.8&#10;&#9;&#9;c-1.8,2.4-4.7,3.6-7.7,3.2c-0.2,0-0.4-0.1-0.6-0.1c-0.2,1.3-0.8,2.5-1.6,3.5c-2.7,3.2-7.2,4-10.4,4.1c-1.1,0.1-2.3-0.1-3.4-0.4&#10;&#9;&#9;c-0.5,1.8-1.4,3.4-2.6,4.8c-2.4,2.9-6,4.5-9.7,4.4c-1-0.1-2-0.3-2.9-0.8c-1.7,6.7-8.5,10.9-15.3,9.2c-0.7-0.2-1.4-0.4-2-0.7&#10;&#9;&#9;c-0.3,0.6-0.7,1.1-1.2,1.5c-3,3.4-6.8,5-10,4.2c-0.4-0.1-0.9-0.3-1.2-0.5c-0.1,0.2-0.3,0.3-0.4,0.5c-2.2,2.5-5.6,3.5-8.6,4.2&#10;&#9;&#9;c-0.6,0.1-1.1,0.3-1.7,0.4c-0.8,1.4-1.9,2.6-3.2,3.5C136.2,324.3,131.3,326,126.3,326z M139.9,312.7c-0.5,0-1,0.2-1.3,0.7&#10;&#9;&#9;c-0.2,0.4-0.2,0.9,0,1.4c0.3,0.7,0.9,1.3,1.6,1.6c0.7,0.2,1.4,0.3,2.1,0.2c0.2-0.6,0.3-1.2,0.2-1.8c-0.3-1.1-1.2-1.9-2.4-2.1&#10;&#9;&#9;C140.2,312.7,140,312.7,139.9,312.7L139.9,312.7z M153.1,305.6c-0.6,0.7-0.9,1.7-0.7,2.7c0.2,0.9,0.6,1.8,1.2,2.5&#10;&#9;&#9;c0.4-0.9,0.5-1.9,0.4-2.9C154.1,307,153.7,306.2,153.1,305.6L153.1,305.6z M163.3,303.9c0.7,0.7,1.6,1.4,2.5,1.9&#10;&#9;&#9;c0.2-0.6,0.2-1.3,0-1.9c-0.4-0.6-1.2-0.8-1.9-0.5C163.4,303.5,163.3,303.7,163.3,303.9L163.3,303.9z M198.1,286.6&#10;&#9;&#9;c0,0.1-0.1,0.1-0.1,0.2c-0.1,0.5-0.1,1,0.1,1.4C198.2,287.7,198.2,287.1,198.1,286.6L198.1,286.6z M211.8,278.4&#10;&#9;&#9;c0,0.6,0.2,1.3,0.6,1.8c0.2,0.4,0.5,0.7,0.8,1c0-0.1,0-0.2-0.1-0.3C212.9,280,212.5,279.1,211.8,278.4L211.8,278.4z M221.1,277&#10;&#9;&#9;c0.6,0,1.3,0,1.9-0.2c0-0.4,0-0.8-0.1-1.2c-0.2-0.7-0.7-1.4-1.4-1.7c-0.4-0.2-0.8-0.3-1.2-0.2C220.2,274.8,220.5,275.9,221.1,277&#10;&#9;&#9;L221.1,277z M228.6,261.1c-0.1,1.1,0.5,2,1.4,2.5c0.8,0.5,1.7,0.7,2.6,0.8c0-0.3,0-0.6,0-0.9c-0.3-1.2-1.1-2.1-2.2-2.5&#10;&#9;&#9;C229.8,260.6,229.2,260.7,228.6,261.1L228.6,261.1z M236.2,247.5c-0.5,0-1,0.1-1.5,0.4c-0.5,0.2-0.8,0.8-0.7,1.3&#10;&#9;&#9;c0.1,0.4,0.5,0.7,0.9,0.9c0.7,0.3,1.5,0.2,2.1-0.2c0.5-0.3,0.9-0.7,1.2-1.2c-0.2-0.3-0.3-0.5-0.6-0.7&#10;&#9;&#9;C237.2,247.6,236.7,247.4,236.2,247.5L236.2,247.5z M237.2,233.1c0,0.4,0.3,0.8,0.7,0.9c0.5,0.2,1.1,0.3,1.6,0.2&#10;&#9;&#9;c-0.1-0.4-0.4-0.8-0.7-1.1c-0.3-0.3-0.8-0.4-1.2-0.3C237.5,232.9,237.4,233,237.2,233.1L237.2,233.1z"/>
	<polygon class="st2_receptionist-1-15" points="60.7,308 60.7,298.3 129.1,315.6 129.1,324.2 &#9;"/>
	<path class="st2_receptionist-1-15" d="M129.1,325h-0.2l-68.4-16.3c-0.3-0.1-0.5-0.4-0.5-0.7v-9.7c0-0.2,0.1-0.4,0.3-0.5c0.2-0.1,0.4-0.2,0.6-0.1&#10;&#9;&#9;l68.4,17.3c0.3,0.1,0.5,0.4,0.5,0.7v8.6c0,0.2-0.1,0.4-0.3,0.5C129.4,324.9,129.3,325,129.1,325z M61.4,307.5l67,15.9v-7.2&#10;&#9;&#9;l-67-16.9L61.4,307.5z"/>
	<polygon class="st0_receptionist-1-15" points="52.1,334.3 52.9,302.1 135.8,320.8 137.9,334.3 &#9;"/>
	<path class="st2_receptionist-1-15" d="M137.9,335H52.1c-0.2,0-0.4-0.1-0.5-0.2c-0.1-0.1-0.2-0.3-0.2-0.5l0.8-32.1c0-0.2,0.1-0.4,0.3-0.5&#10;&#9;&#9;c0.2-0.1,0.4-0.2,0.6-0.1l82.9,18.6c0.3,0.1,0.5,0.3,0.5,0.6l2.1,13.5c0,0.2,0,0.4-0.2,0.6C138.3,334.9,138.1,335,137.9,335z&#10;&#9;&#9; M52.9,333.6h84.2l-1.9-12.2L53.6,303L52.9,333.6z"/>
</g>
</svg>